<?xml version="1.0" standalone="no"?>
<!DOCTYPE svg PUBLIC "-//W3C//DTD SVG 20010904//EN"
 "http://www.w3.org/TR/2001/REC-SVG-20010904/DTD/svg10.dtd">
<svg version="1.0" xmlns="http://www.w3.org/2000/svg"
 width="50.000000pt" height="50.000000pt" viewBox="0 0 50.000000 50.000000"
 preserveAspectRatio="xMidYMid meet">

<g transform="translate(0.000000,50.000000) scale(0.100000,-0.100000)"
fill="#000000" stroke="none">
<path d="M273 472 c-40 -15 -43 -19 -43 -55 0 -48 23 -102 48 -116 30 -16 84
-13 109 4 24 17 43 71 43 120 0 28 -4 32 -47 45 -67 20 -63 20 -110 2z m72 -1
c3 -5 19 -12 35 -16 29 -6 30 -9 30 -58 0 -65 -26 -97 -80 -97 -50 0 -81 34
-87 97 l-5 48 43 16 c55 21 57 21 64 10z"/>
<path d="M262 410 c0 -19 2 -27 5 -17 2 9 2 25 0 35 -3 9 -5 1 -5 -18z"/>
<path d="M380 405 c0 -14 5 -25 10 -25 6 0 10 11 10 25 0 14 -4 25 -10 25 -5
0 -10 -11 -10 -25z"/>
<path d="M344 395 c-16 -24 -18 -25 -35 -9 -11 10 -19 13 -19 7 0 -5 8 -17 19
-27 19 -18 20 -17 55 42 14 23 -4 12 -20 -13z"/>
<path d="M270 355 c0 -2 7 -11 16 -19 22 -22 67 -20 90 5 l19 21 -33 -19 c-30
-17 -34 -17 -62 -1 -16 9 -30 15 -30 13z"/>
<path d="M149 423 c-74 -38 -111 -93 -117 -172 -5 -76 11 -124 61 -178 114
-123 321 -71 367 93 13 47 8 120 -11 155 -17 33 -21 15 -4 -24 24 -59 21 -67
-30 -67 -36 0 -45 4 -45 17 0 15 -1 15 -13 -1 -10 -13 -24 -17 -57 -14 -43 3
-45 5 -51 38 l-6 35 -2 -37 -1 -38 -50 0 c-48 0 -50 1 -50 28 0 56 10 71 49
75 l36 4 -38 1 -37 2 15 37 c9 21 23 45 32 55 21 24 16 23 -48 -9z m6 -40
c-12 -34 -17 -38 -52 -41 l-38 -2 42 40 c23 22 46 40 51 40 5 0 4 -17 -3 -37z
m-19 -69 c-3 -9 -6 -31 -6 -50 0 -34 0 -34 -45 -34 -50 0 -55 9 -34 69 10 28
15 31 51 31 32 0 39 -3 34 -16z m-6 -123 c0 -16 3 -36 6 -45 5 -13 -2 -16 -35
-16 -35 0 -43 4 -51 26 -20 53 -14 64 35 64 43 0 45 -1 45 -29z m110 -16 l0
-45 -44 0 c-48 0 -56 9 -56 61 0 28 1 29 50 29 l50 0 0 -45z m116 23 c-3 -13
-6 -33 -6 -45 0 -21 -5 -23 -50 -23 l-50 0 0 45 0 45 56 0 c54 0 56 -1 50 -22z
m104 15 c0 -5 -5 -25 -11 -45 -9 -36 -12 -38 -49 -38 -43 0 -45 4 -34 59 6 29
9 31 50 31 24 0 44 -3 44 -7z m-305 -139 c8 -20 15 -38 15 -41 0 -7 -45 19
-67 40 -31 28 -29 37 7 37 25 0 32 -6 45 -36z m85 -13 c0 -46 -1 -48 -25 -43
-26 4 -36 18 -55 66 -9 26 -9 26 35 26 l45 0 0 -49z m100 39 c0 -5 -8 -25 -17
-45 -13 -28 -22 -35 -45 -35 -27 0 -28 2 -28 45 l0 45 45 0 c25 0 45 -4 45
-10z m69 -8 c-11 -17 -71 -64 -76 -59 -1 2 3 20 9 40 10 33 15 37 45 37 29 0
32 -2 22 -18z"/>
</g>
</svg>
