<?xml version="1.0" encoding="UTF-8"?><svg xmlns="http://www.w3.org/2000/svg" xmlns:xlink="http://www.w3.org/1999/xlink" width="37.5" zoomAndPan="magnify" viewBox="0 0 37.5 37.499999" height="37.499999" preserveAspectRatio="xMidYMid meet" version="1.0"><defs><clipPath id="clip-0"><path d="M 1.734375 3.730469 L 35.484375 3.730469 L 35.484375 37.007812 L 1.734375 37.007812 Z M 1.734375 3.730469 " clip-rule="nonzero"/></clipPath></defs><g clip-path="url(#clip-0)"><path fill="rgb(1.568604%, 47.059631%, 78.819275%)" d="M 5.644531 29.15625 L 10.402344 29.15625 C 10.921875 31.335938 11.636719 33.292969 12.515625 34.921875 C 9.707031 33.714844 7.320312 31.691406 5.644531 29.15625 Z M 12.519531 6.03125 C 11.636719 7.660156 10.921875 9.621094 10.402344 11.804688 L 5.65625 11.804688 C 7.320312 9.277344 9.695312 7.246094 12.519531 6.03125 Z M 9.441406 19.820312 L 3.058594 19.820312 C 3.15625 17.429688 3.800781 15.152344 4.875 13.121094 L 10.121094 13.121094 C 9.714844 15.21875 9.480469 17.480469 9.441406 19.820312 Z M 3.058594 21.140625 L 9.441406 21.140625 C 9.480469 23.480469 9.714844 25.742188 10.121094 27.835938 L 4.863281 27.835938 C 3.796875 25.824219 3.15625 23.550781 3.058594 21.140625 Z M 17.957031 22.726562 L 17.957031 27.835938 L 11.449219 27.835938 C 11.03125 25.757812 10.789062 23.492188 10.75 21.140625 L 17.957031 21.140625 Z M 26.46875 21.140625 C 26.429688 23.492188 26.1875 25.757812 25.769531 27.835938 L 19.265625 27.835938 L 19.265625 21.140625 Z M 32.355469 27.835938 L 27.097656 27.835938 C 27.503906 25.742188 27.738281 23.480469 27.777344 21.140625 L 34.160156 21.140625 C 34.0625 23.550781 33.421875 25.824219 32.355469 27.835938 Z M 24.703125 34.921875 C 25.582031 33.292969 26.296875 31.335938 26.816406 29.15625 L 31.574219 29.15625 C 29.898438 31.691406 27.511719 33.714844 24.703125 34.921875 Z M 17.957031 36.15625 C 16.78125 36.109375 15.609375 35.925781 14.472656 35.609375 C 13.3125 33.953125 12.386719 31.726562 11.746094 29.15625 L 17.957031 29.15625 Z M 19.265625 29.15625 L 25.472656 29.15625 C 24.835938 31.726562 23.90625 33.953125 22.75 35.609375 C 21.609375 35.925781 20.4375 36.109375 19.265625 36.15625 Z M 19.382812 37.476562 C 19.433594 37.476562 19.484375 37.472656 19.535156 37.46875 C 19.632812 37.464844 19.730469 37.457031 19.824219 37.449219 C 19.902344 37.445312 19.976562 37.4375 20.050781 37.433594 C 20.085938 37.429688 20.117188 37.425781 20.152344 37.421875 C 25.773438 36.90625 30.605469 33.601562 33.273438 28.894531 C 33.308594 28.84375 33.339844 28.792969 33.363281 28.734375 C 34.714844 26.289062 35.484375 23.472656 35.484375 20.480469 C 35.484375 17.46875 34.695312 14.511719 33.203125 11.929688 C 33.019531 11.613281 32.621094 11.507812 32.308594 11.691406 C 31.996094 11.875 31.890625 12.277344 32.070312 12.59375 C 33.339844 14.785156 34.054688 17.273438 34.160156 19.820312 L 27.777344 19.820312 C 27.765625 19.175781 27.742188 18.53125 27.703125 17.898438 C 27.679688 17.535156 27.371094 17.265625 27.007812 17.28125 C 26.648438 17.304688 26.371094 17.617188 26.394531 17.980469 C 26.433594 18.585938 26.457031 19.203125 26.46875 19.820312 L 19.265625 19.820312 L 19.265625 15.605469 C 19.265625 15.242188 18.972656 14.945312 18.609375 14.945312 C 18.25 14.945312 17.957031 15.242188 17.957031 15.605469 L 17.957031 19.820312 L 10.75 19.820312 C 10.789062 17.464844 11.03125 15.199219 11.449219 13.121094 L 16.488281 13.121094 C 16.851562 13.121094 17.144531 12.828125 17.144531 12.464844 C 17.144531 12.097656 16.851562 11.804688 16.488281 11.804688 L 11.746094 11.804688 C 12.386719 9.230469 13.3125 7.007812 14.472656 5.347656 C 14.78125 5.261719 15.09375 5.183594 15.40625 5.117188 C 15.761719 5.042969 15.984375 4.695312 15.910156 4.335938 C 15.835938 3.980469 15.488281 3.75 15.136719 3.824219 C 7.371094 5.460938 1.734375 12.46875 1.734375 20.480469 C 1.734375 23.472656 2.507812 26.289062 3.859375 28.734375 C 3.878906 28.792969 3.910156 28.84375 3.945312 28.894531 C 6.613281 33.601562 11.445312 36.90625 17.066406 37.421875 C 17.101562 37.425781 17.132812 37.429688 17.167969 37.433594 C 17.242188 37.4375 17.316406 37.445312 17.394531 37.449219 C 17.492188 37.457031 17.589844 37.464844 17.691406 37.46875 C 17.738281 37.472656 17.785156 37.476562 17.835938 37.476562 C 17.925781 37.480469 18.019531 37.484375 18.109375 37.488281 C 18.148438 37.488281 18.1875 37.488281 18.230469 37.492188 C 18.355469 37.492188 18.484375 37.496094 18.609375 37.496094 C 18.738281 37.496094 18.863281 37.492188 18.992188 37.492188 C 19.03125 37.488281 19.070312 37.488281 19.109375 37.488281 C 19.203125 37.484375 19.292969 37.480469 19.382812 37.476562 " fill-opacity="1" fill-rule="nonzero"/></g><path fill="rgb(1.568604%, 47.059631%, 78.819275%)" d="M 18.5625 3.835938 C 20.777344 3.75 22.910156 2.96875 24.664062 1.605469 C 26.296875 3.054688 28.375 3.84375 30.566406 3.84375 L 30.828125 3.84375 L 30.828125 8.867188 C 30.828125 11.496094 29.175781 13.839844 26.714844 14.707031 C 25.410156 15.164062 23.976562 15.164062 22.671875 14.707031 C 20.214844 13.839844 18.5625 11.496094 18.5625 8.867188 Z M 22.242188 15.953125 C 23.03125 16.230469 23.863281 16.371094 24.695312 16.371094 C 25.523438 16.371094 26.355469 16.230469 27.148438 15.953125 C 30.128906 14.902344 32.136719 12.054688 32.136719 8.867188 L 32.136719 3.183594 C 32.136719 2.820312 31.84375 2.523438 31.480469 2.523438 L 30.566406 2.523438 C 28.523438 2.523438 26.601562 1.722656 25.15625 0.265625 C 24.914062 0.0195312 24.527344 0.00390625 24.265625 0.230469 C 22.570312 1.710938 20.398438 2.523438 18.152344 2.523438 L 17.90625 2.523438 C 17.546875 2.523438 17.253906 2.820312 17.253906 3.183594 L 17.253906 8.867188 C 17.253906 12.054688 19.257812 14.902344 22.242188 15.953125 " fill-opacity="1" fill-rule="nonzero"/><path fill="rgb(1.568604%, 47.059631%, 78.819275%)" d="M 22.980469 13.605469 C 23.53125 13.800781 24.113281 13.898438 24.695312 13.898438 C 25.273438 13.898438 25.855469 13.800781 26.40625 13.605469 C 27.722656 13.140625 28.78125 12.1875 29.382812 10.921875 C 29.539062 10.59375 29.402344 10.199219 29.078125 10.039062 C 28.75 9.882812 28.359375 10.019531 28.203125 10.351562 C 27.753906 11.300781 26.960938 12.011719 25.976562 12.359375 C 25.148438 12.652344 24.238281 12.652344 23.410156 12.359375 C 22.453125 12.023438 21.671875 11.332031 21.214844 10.414062 C 21.054688 10.089844 20.660156 9.957031 20.335938 10.121094 C 20.015625 10.285156 19.882812 10.679688 20.046875 11.007812 C 20.65625 12.230469 21.699219 13.152344 22.980469 13.605469 " fill-opacity="1" fill-rule="nonzero"/><path fill="rgb(1.568604%, 47.059631%, 78.819275%)" d="M 23.964844 11.199219 C 24.089844 11.347656 24.273438 11.429688 24.464844 11.429688 C 24.476562 11.429688 24.492188 11.429688 24.507812 11.429688 C 24.714844 11.417969 24.902344 11.304688 25.011719 11.128906 L 27.671875 6.992188 C 27.867188 6.6875 27.78125 6.277344 27.476562 6.082031 C 27.175781 5.882812 26.769531 5.96875 26.574219 6.277344 L 24.394531 9.667969 L 22.765625 7.738281 C 22.53125 7.460938 22.117188 7.425781 21.839844 7.664062 C 21.566406 7.898438 21.535156 8.316406 21.765625 8.59375 L 23.964844 11.199219 " fill-opacity="1" fill-rule="nonzero"/><path fill="rgb(1.568604%, 47.059631%, 78.819275%)" d="M 20.800781 8.847656 L 20.800781 5.105469 C 20.800781 4.742188 20.507812 4.449219 20.148438 4.449219 C 19.785156 4.449219 19.492188 4.742188 19.492188 5.105469 L 19.492188 8.847656 C 19.492188 9.210938 19.785156 9.507812 20.148438 9.507812 C 20.507812 9.507812 20.800781 9.210938 20.800781 8.847656 " fill-opacity="1" fill-rule="nonzero"/><path fill="rgb(1.568604%, 47.059631%, 78.819275%)" d="M 29.238281 9.507812 C 29.601562 9.507812 29.894531 9.210938 29.894531 8.847656 L 29.894531 5.105469 C 29.894531 4.742188 29.601562 4.449219 29.238281 4.449219 C 28.878906 4.449219 28.585938 4.742188 28.585938 5.105469 L 28.585938 8.847656 C 28.585938 9.210938 28.878906 9.507812 29.238281 9.507812 " fill-opacity="1" fill-rule="nonzero"/></svg>