<?xml version="1.0" encoding="UTF-8"?><svg xmlns="http://www.w3.org/2000/svg" xmlns:xlink="http://www.w3.org/1999/xlink" width="37.5" zoomAndPan="magnify" viewBox="0 0 37.5 37.499999" height="37.499999" preserveAspectRatio="xMidYMid meet" version="1.0"><defs><clipPath id="clip-0"><path d="M 0 0 L 37.007812 0 L 37.007812 37.007812 L 0 37.007812 Z M 0 0 " clip-rule="nonzero"/></clipPath><clipPath id="clip-1"><path d="M 27 18 L 29 18 L 29 19.765625 L 27 19.765625 Z M 27 18 " clip-rule="nonzero"/></clipPath><clipPath id="clip-2"><path d="M 24 13.765625 L 31.5 13.765625 L 31.5 17 L 24 17 Z M 24 13.765625 " clip-rule="nonzero"/></clipPath></defs><path fill="rgb(100%, 100%, 100%)" d="M 18.789062 11.34375 C 20.160156 11.34375 21.277344 12.460938 21.277344 13.832031 C 21.277344 15.207031 20.160156 16.324219 18.789062 16.324219 C 17.417969 16.324219 16.300781 15.207031 16.300781 13.832031 C 16.300781 12.460938 17.417969 11.34375 18.789062 11.34375 Z M 15.054688 13.832031 C 15.054688 15.890625 16.730469 17.566406 18.789062 17.566406 C 20.847656 17.566406 22.523438 15.890625 22.523438 13.832031 C 22.523438 11.773438 20.847656 10.097656 18.789062 10.097656 C 16.730469 10.097656 15.054688 11.773438 15.054688 13.832031 " fill-opacity="1" fill-rule="nonzero"/><path fill="rgb(100%, 100%, 100%)" d="M 24.390625 20.097656 L 24.390625 20.679688 L 13.1875 20.679688 L 13.1875 20.097656 C 13.1875 19.414062 13.746094 18.855469 14.433594 18.855469 L 23.144531 18.855469 C 23.832031 18.855469 24.390625 19.414062 24.390625 20.097656 Z M 28.042969 21.925781 L 26.953125 30.636719 L 10.625 30.636719 L 9.535156 21.925781 Z M 11.941406 20.097656 L 11.941406 20.679688 L 8.832031 20.679688 C 8.652344 20.679688 8.480469 20.757812 8.363281 20.890625 C 8.246094 21.023438 8.191406 21.203125 8.210938 21.378906 L 9.457031 31.335938 C 9.496094 31.648438 9.761719 31.882812 10.074219 31.882812 L 27.503906 31.882812 C 27.816406 31.882812 28.082031 31.648438 28.121094 31.335938 L 29.363281 21.378906 C 29.386719 21.203125 29.332031 21.023438 29.214844 20.890625 C 29.097656 20.757812 28.925781 20.679688 28.746094 20.679688 L 25.636719 20.679688 L 25.636719 20.097656 C 25.636719 18.726562 24.519531 17.609375 23.144531 17.609375 L 14.433594 17.609375 C 13.058594 17.609375 11.941406 18.726562 11.941406 20.097656 " fill-opacity="1" fill-rule="nonzero"/><path fill="rgb(100%, 100%, 100%)" d="M 8.207031 34.371094 L 29.371094 34.371094 L 29.371094 33.128906 L 8.207031 33.128906 L 8.207031 34.371094 " fill-opacity="1" fill-rule="nonzero"/><path fill="rgb(100%, 100%, 100%)" d="M 18.789062 25.035156 C 19.476562 25.035156 20.035156 25.59375 20.035156 26.28125 C 20.035156 26.96875 19.476562 27.527344 18.789062 27.527344 C 18.101562 27.527344 17.542969 26.96875 17.542969 26.28125 C 17.542969 25.59375 18.101562 25.035156 18.789062 25.035156 Z M 18.789062 28.769531 C 20.160156 28.769531 21.277344 27.652344 21.277344 26.28125 C 21.277344 24.910156 20.160156 23.792969 18.789062 23.792969 C 17.417969 23.792969 16.300781 24.910156 16.300781 26.28125 C 16.300781 27.652344 17.417969 28.769531 18.789062 28.769531 " fill-opacity="1" fill-rule="nonzero"/><g clip-path="url(#clip-0)"><path fill="rgb(100%, 100%, 100%)" d="M 35.1875 15.3125 L 19.101562 3.152344 C 19 3.070312 18.875 3.03125 18.75 3.03125 C 18.625 3.03125 18.5 3.070312 18.398438 3.152344 L 2.3125 15.3125 L 1.476562 14.195312 L 18.335938 1.445312 C 18.582031 1.261719 18.917969 1.261719 19.164062 1.445312 L 36.023438 14.195312 Z M 32.480469 36.238281 L 5.097656 36.238281 L 5.097656 14.675781 L 18.75 4.351562 L 32.480469 14.734375 Z M 37.191406 13.609375 L 19.867188 0.511719 C 19.210938 0.015625 18.289062 0.015625 17.632812 0.511719 L 0.308594 13.609375 C 0.0546875 13.804688 0 14.167969 0.191406 14.425781 L 1.722656 16.484375 C 1.816406 16.609375 1.957031 16.691406 2.109375 16.714844 C 2.265625 16.738281 2.421875 16.695312 2.546875 16.601562 L 3.851562 15.617188 L 3.851562 36.863281 C 3.851562 37.207031 4.128906 37.484375 4.472656 37.484375 L 33.105469 37.484375 C 33.449219 37.484375 33.726562 37.207031 33.726562 36.863281 L 33.726562 15.675781 L 34.953125 16.601562 C 35.054688 16.679688 35.179688 16.71875 35.304688 16.71875 C 35.332031 16.71875 35.363281 16.71875 35.390625 16.714844 C 35.542969 16.691406 35.683594 16.609375 35.777344 16.484375 L 37.308594 14.425781 C 37.5 14.167969 37.445312 13.804688 37.191406 13.609375 " fill-opacity="1" fill-rule="nonzero"/></g><g clip-path="url(#clip-1)"><path fill="rgb(100%, 100%, 100%)" d="M 27.75 18.386719 C 27.394531 18.386719 27.105469 18.695312 27.105469 19.066406 C 27.105469 19.441406 27.394531 19.746094 27.75 19.746094 C 28.105469 19.746094 28.394531 19.441406 28.394531 19.066406 C 28.394531 18.6875 28.105469 18.386719 27.75 18.386719 Z M 27.75 18.386719 " fill-opacity="1" fill-rule="nonzero"/></g><path fill="rgb(100%, 100%, 100%)" d="M 27.75 16.78125 C 27.160156 16.78125 26.601562 17.023438 26.183594 17.457031 C 26.015625 17.636719 26.015625 17.921875 26.183594 18.101562 C 26.265625 18.1875 26.375 18.234375 26.492188 18.234375 C 26.609375 18.234375 26.71875 18.1875 26.800781 18.101562 C 27.054688 17.832031 27.390625 17.683594 27.75 17.683594 C 28.109375 17.683594 28.453125 17.832031 28.707031 18.101562 C 28.789062 18.1875 28.898438 18.234375 29.011719 18.234375 C 29.128906 18.234375 29.238281 18.1875 29.320312 18.101562 C 29.488281 17.921875 29.488281 17.636719 29.320312 17.457031 C 28.898438 17.023438 28.339844 16.78125 27.75 16.78125 Z M 27.75 16.78125 " fill-opacity="1" fill-rule="nonzero"/><g clip-path="url(#clip-2)"><path fill="rgb(100%, 100%, 100%)" d="M 31.332031 15.347656 C 30.375 14.339844 29.101562 13.78125 27.75 13.78125 C 26.398438 13.78125 25.125 14.332031 24.167969 15.34375 C 24 15.519531 24 15.808594 24.167969 15.984375 C 24.25 16.070312 24.359375 16.117188 24.476562 16.117188 C 24.589844 16.117188 24.703125 16.070312 24.78125 15.984375 C 25.570312 15.152344 26.625 14.695312 27.75 14.695312 C 28.875 14.695312 29.929688 15.152344 30.722656 15.992188 C 30.804688 16.074219 30.914062 16.125 31.03125 16.125 C 31.144531 16.125 31.257812 16.074219 31.335938 15.992188 C 31.5 15.8125 31.5 15.527344 31.332031 15.347656 Z M 31.332031 15.347656 " fill-opacity="1" fill-rule="nonzero"/></g><path fill="rgb(100%, 100%, 100%)" d="M 27.75 15.316406 C 26.789062 15.316406 25.882812 15.710938 25.199219 16.425781 C 25.117188 16.511719 25.070312 16.625 25.070312 16.75 C 25.070312 16.871094 25.117188 16.988281 25.199219 17.074219 C 25.28125 17.160156 25.390625 17.207031 25.507812 17.207031 C 25.621094 17.207031 25.734375 17.160156 25.8125 17.074219 C 26.328125 16.527344 27.019531 16.230469 27.75 16.230469 C 28.480469 16.230469 29.171875 16.527344 29.6875 17.074219 C 29.765625 17.160156 29.878906 17.207031 29.992188 17.207031 C 30.109375 17.207031 30.21875 17.160156 30.300781 17.074219 C 30.382812 16.988281 30.429688 16.871094 30.429688 16.75 C 30.429688 16.625 30.382812 16.511719 30.300781 16.425781 C 29.617188 15.714844 28.710938 15.316406 27.75 15.316406 Z M 27.75 15.316406 " fill-opacity="1" fill-rule="nonzero"/></svg>