<?xml version="1.0" encoding="UTF-8"?><svg xmlns="http://www.w3.org/2000/svg" xmlns:xlink="http://www.w3.org/1999/xlink" width="37.5" zoomAndPan="magnify" viewBox="0 0 37.5 37.499999" height="37.499999" preserveAspectRatio="xMidYMid meet" version="1.0"><defs><clipPath id="clip-0"><path d="M 14 0 L 36.773438 0 L 36.773438 37.007812 L 14 37.007812 Z M 14 0 " clip-rule="nonzero"/></clipPath><clipPath id="clip-1"><path d="M 14 6 L 36.773438 6 L 36.773438 8 L 14 8 Z M 14 6 " clip-rule="nonzero"/></clipPath><clipPath id="clip-2"><path d="M 14 28 L 36.773438 28 L 36.773438 30 L 14 30 Z M 14 28 " clip-rule="nonzero"/></clipPath><clipPath id="clip-3"><path d="M 0.773438 3 L 17 3 L 17 33 L 0.773438 33 Z M 0.773438 3 " clip-rule="nonzero"/></clipPath><clipPath id="clip-4"><path d="M 0.773438 17 L 17 17 L 17 19 L 0.773438 19 Z M 0.773438 17 " clip-rule="nonzero"/></clipPath></defs><g clip-path="url(#clip-0)"><path fill="rgb(100%, 100%, 100%)" d="M 31.289062 37.5 L 20.339844 37.5 C 17.320312 37.5 14.863281 35.046875 14.863281 32.03125 L 14.863281 5.46875 C 14.863281 2.453125 17.320312 0 20.339844 0 L 31.289062 0 C 34.308594 0 36.765625 2.453125 36.765625 5.46875 L 36.765625 32.03125 C 36.765625 35.046875 34.308594 37.5 31.289062 37.5 Z M 20.339844 1.5625 C 18.183594 1.5625 16.425781 3.316406 16.425781 5.46875 L 16.425781 32.03125 C 16.425781 34.183594 18.183594 35.9375 20.339844 35.9375 L 31.289062 35.9375 C 33.445312 35.9375 35.199219 34.183594 35.199219 32.03125 L 35.199219 5.46875 C 35.199219 3.316406 33.445312 1.5625 31.289062 1.5625 Z M 20.339844 1.5625 " fill-opacity="1" fill-rule="nonzero"/></g><g clip-path="url(#clip-1)"><path fill="rgb(100%, 100%, 100%)" d="M 35.984375 7.8125 L 15.644531 7.8125 C 15.210938 7.8125 14.863281 7.460938 14.863281 7.03125 C 14.863281 6.601562 15.210938 6.25 15.644531 6.25 L 35.984375 6.25 C 36.414062 6.25 36.765625 6.601562 36.765625 7.03125 C 36.765625 7.460938 36.414062 7.8125 35.984375 7.8125 Z M 35.984375 7.8125 " fill-opacity="1" fill-rule="nonzero"/></g><g clip-path="url(#clip-2)"><path fill="rgb(100%, 100%, 100%)" d="M 35.984375 29.6875 L 15.644531 29.6875 C 15.210938 29.6875 14.863281 29.335938 14.863281 28.90625 C 14.863281 28.476562 15.210938 28.125 15.644531 28.125 L 35.984375 28.125 C 36.414062 28.125 36.765625 28.476562 36.765625 28.90625 C 36.765625 29.335938 36.414062 29.6875 35.984375 29.6875 Z M 35.984375 29.6875 " fill-opacity="1" fill-rule="nonzero"/></g><path fill="rgb(100%, 100%, 100%)" d="M 27.378906 32.8125 C 27.378906 33.019531 27.339844 33.21875 27.257812 33.410156 C 27.179688 33.601562 27.066406 33.769531 26.921875 33.917969 C 26.773438 34.0625 26.605469 34.175781 26.414062 34.257812 C 26.222656 34.335938 26.019531 34.375 25.8125 34.375 C 25.605469 34.375 25.40625 34.335938 25.214844 34.257812 C 25.023438 34.175781 24.855469 34.0625 24.707031 33.917969 C 24.5625 33.769531 24.449219 33.601562 24.367188 33.410156 C 24.289062 33.21875 24.25 33.019531 24.25 32.8125 C 24.25 32.605469 24.289062 32.40625 24.367188 32.214844 C 24.449219 32.023438 24.5625 31.855469 24.707031 31.707031 C 24.855469 31.5625 25.023438 31.449219 25.214844 31.367188 C 25.40625 31.289062 25.605469 31.25 25.8125 31.25 C 26.019531 31.25 26.222656 31.289062 26.414062 31.367188 C 26.605469 31.449219 26.773438 31.5625 26.921875 31.707031 C 27.066406 31.855469 27.179688 32.023438 27.257812 32.214844 C 27.339844 32.40625 27.378906 32.605469 27.378906 32.8125 Z M 27.378906 32.8125 " fill-opacity="1" fill-rule="nonzero"/><path fill="rgb(100%, 100%, 100%)" d="M 28.160156 4.6875 L 23.46875 4.6875 C 23.035156 4.6875 22.683594 4.335938 22.683594 3.90625 C 22.683594 3.476562 23.035156 3.125 23.46875 3.125 L 28.160156 3.125 C 28.59375 3.125 28.941406 3.476562 28.941406 3.90625 C 28.941406 4.335938 28.59375 4.6875 28.160156 4.6875 Z M 28.160156 4.6875 " fill-opacity="1" fill-rule="nonzero"/><path fill="rgb(100%, 100%, 100%)" d="M 31.320312 4.6875 C 30.890625 4.6875 30.53125 4.335938 30.53125 3.90625 C 30.53125 3.476562 30.875 3.125 31.304688 3.125 L 31.320312 3.125 C 31.753906 3.125 32.101562 3.476562 32.101562 3.90625 C 32.101562 4.335938 31.753906 4.6875 31.320312 4.6875 Z M 31.320312 4.6875 " fill-opacity="1" fill-rule="nonzero"/><g clip-path="url(#clip-3)"><path fill="rgb(100%, 100%, 100%)" d="M 15.644531 32.8125 C 7.449219 32.8125 0.78125 26.152344 0.78125 17.96875 C 0.78125 9.785156 7.449219 3.125 15.644531 3.125 C 16.078125 3.125 16.425781 3.476562 16.425781 3.90625 C 16.425781 4.335938 16.078125 4.6875 15.644531 4.6875 C 8.3125 4.6875 2.347656 10.644531 2.347656 17.96875 C 2.347656 25.292969 8.3125 31.25 15.644531 31.25 C 16.078125 31.25 16.425781 31.601562 16.425781 32.03125 C 16.425781 32.460938 16.078125 32.8125 15.644531 32.8125 Z M 15.644531 32.8125 " fill-opacity="1" fill-rule="nonzero"/></g><path fill="rgb(100%, 100%, 100%)" d="M 15.644531 32.8125 C 10.820312 32.8125 7.039062 26.292969 7.039062 17.96875 C 7.039062 9.644531 10.820312 3.125 15.644531 3.125 C 16.078125 3.125 16.425781 3.476562 16.425781 3.90625 C 16.425781 4.335938 16.078125 4.6875 15.644531 4.6875 C 11.828125 4.6875 8.605469 10.769531 8.605469 17.96875 C 8.605469 25.167969 11.828125 31.25 15.644531 31.25 C 16.078125 31.25 16.425781 31.601562 16.425781 32.03125 C 16.425781 32.460938 16.078125 32.8125 15.644531 32.8125 Z M 15.644531 32.8125 " fill-opacity="1" fill-rule="nonzero"/><g clip-path="url(#clip-4)"><path fill="rgb(100%, 100%, 100%)" d="M 15.644531 18.75 L 1.5625 18.75 C 1.132812 18.75 0.78125 18.398438 0.78125 17.96875 C 0.78125 17.539062 1.132812 17.1875 1.5625 17.1875 L 15.644531 17.1875 C 16.078125 17.1875 16.425781 17.539062 16.425781 17.96875 C 16.425781 18.398438 16.078125 18.75 15.644531 18.75 Z M 15.644531 18.75 " fill-opacity="1" fill-rule="nonzero"/></g><path fill="rgb(100%, 100%, 100%)" d="M 15.644531 10.9375 L 4.691406 10.9375 C 4.261719 10.9375 3.910156 10.585938 3.910156 10.15625 C 3.910156 9.726562 4.261719 9.375 4.691406 9.375 L 15.644531 9.375 C 16.078125 9.375 16.425781 9.726562 16.425781 10.15625 C 16.425781 10.585938 16.078125 10.9375 15.644531 10.9375 Z M 15.644531 10.9375 " fill-opacity="1" fill-rule="nonzero"/><path fill="rgb(100%, 100%, 100%)" d="M 15.644531 26.5625 L 4.691406 26.5625 C 4.261719 26.5625 3.910156 26.210938 3.910156 25.78125 C 3.910156 25.351562 4.261719 25 4.691406 25 L 15.644531 25 C 16.078125 25 16.425781 25.351562 16.425781 25.78125 C 16.425781 26.210938 16.078125 26.5625 15.644531 26.5625 Z M 15.644531 26.5625 " fill-opacity="1" fill-rule="nonzero"/></svg>