<?xml version="1.0" encoding="UTF-8"?><svg xmlns="http://www.w3.org/2000/svg" xmlns:xlink="http://www.w3.org/1999/xlink" width="37.5" zoomAndPan="magnify" viewBox="0 0 37.5 37.499999" height="37.499999" preserveAspectRatio="xMidYMid meet" version="1.0"><defs><clipPath id="clip-0"><path d="M 0 0 L 37.007812 0 L 37.007812 37.007812 L 0 37.007812 Z M 0 0 " clip-rule="nonzero"/></clipPath></defs><g clip-path="url(#clip-0)"><path fill="rgb(100%, 100%, 100%)" d="M 36.289062 27.824219 C 36.289062 28.488281 35.746094 29.03125 35.082031 29.03125 L 2.417969 29.03125 C 1.753906 29.03125 1.210938 28.488281 1.210938 27.824219 L 1.210938 25.402344 L 28.175781 25.402344 L 31.148438 28.375 L 35.632812 23.890625 L 29.886719 18.144531 L 32.308594 15.726562 L 31.453125 15.726562 L 31.453125 8.46875 L 35.082031 8.46875 C 35.746094 8.46875 36.289062 9.011719 36.289062 9.675781 Z M 21.773438 33.871094 L 15.726562 33.871094 L 15.726562 30.242188 L 21.773438 30.242188 Z M 26.613281 34.476562 C 26.613281 35.019531 23.9375 36.289062 18.75 36.289062 C 13.5625 36.289062 10.886719 35.019531 10.886719 34.476562 C 10.886719 34.226562 11.769531 33.460938 14.515625 32.996094 L 14.515625 35.082031 L 22.984375 35.082031 L 22.984375 32.996094 C 25.730469 33.460938 26.613281 34.226562 26.613281 34.476562 Z M 2.417969 8.46875 L 6.046875 8.46875 L 6.046875 20.566406 C 6.046875 21.898438 7.132812 22.984375 8.46875 22.984375 L 22.984375 22.984375 L 22.984375 24.195312 L 1.210938 24.195312 L 1.210938 9.675781 C 1.210938 9.011719 1.753906 8.46875 2.417969 8.46875 Z M 8.46875 1.210938 L 29.03125 1.210938 C 29.699219 1.210938 30.242188 1.753906 30.242188 2.417969 L 30.242188 4.839844 L 7.257812 4.839844 L 7.257812 2.417969 C 7.257812 1.753906 7.800781 1.210938 8.46875 1.210938 Z M 26.96875 24.195312 L 23.839844 24.195312 L 25.402344 22.628906 Z M 12.097656 18.519531 L 15.726562 16.703125 L 15.726562 19.355469 L 12.097656 19.355469 Z M 15.183594 14.554688 C 15.421875 14.4375 15.726562 14.628906 15.726562 14.890625 L 15.726562 15.351562 L 12.097656 17.167969 L 12.097656 16.472656 C 12.097656 16.242188 12.222656 16.035156 12.429688 15.933594 Z M 20.566406 11.320312 L 14.515625 9.808594 L 14.515625 8.914062 C 14.515625 8.625 14.8125 8.402344 15.09375 8.488281 L 20.132812 10 C 20.390625 10.074219 20.566406 10.308594 20.566406 10.578125 Z M 15.351562 13.304688 C 15.105469 13.304688 14.863281 13.363281 14.644531 13.472656 L 14.515625 13.539062 L 14.515625 11.058594 L 20.566406 12.570312 L 20.566406 13.304688 L 19.960938 13.304688 C 18.957031 13.304688 18.144531 14.121094 18.144531 15.121094 L 18.144531 19.355469 L 16.933594 19.355469 L 16.933594 14.890625 C 16.933594 14.019531 16.222656 13.304688 15.351562 13.304688 Z M 20.566406 15.726562 L 20.566406 19.355469 L 19.355469 19.355469 L 19.355469 15.121094 C 19.355469 14.789062 19.625 14.515625 19.960938 14.515625 L 24.796875 14.515625 C 25.132812 14.515625 25.402344 14.789062 25.402344 15.121094 L 25.402344 15.726562 L 22.984375 15.726562 L 22.984375 19.355469 L 21.773438 19.355469 L 21.773438 15.726562 Z M 33.921875 23.890625 L 31.148438 26.664062 L 25.402344 20.917969 L 24.195312 22.128906 L 24.195312 16.933594 L 29.386719 16.933594 L 28.175781 18.144531 Z M 26.613281 15.726562 L 26.613281 15.121094 C 26.613281 14.121094 25.800781 13.304688 24.796875 13.304688 L 21.773438 13.304688 L 21.773438 10.578125 C 21.773438 9.769531 21.253906 9.070312 20.480469 8.839844 L 15.441406 7.328125 C 15.285156 7.28125 15.128906 7.257812 14.960938 7.257812 C 14.050781 7.257812 13.304688 8.003906 13.304688 8.914062 L 13.304688 14.144531 L 11.890625 14.847656 C 11.273438 15.160156 10.886719 15.78125 10.886719 16.472656 L 10.886719 20.566406 L 22.984375 20.566406 L 22.984375 21.773438 L 8.46875 21.773438 C 7.800781 21.773438 7.257812 21.230469 7.257812 20.566406 L 7.257812 6.046875 L 30.242188 6.046875 L 30.242188 15.726562 Z M 35.082031 7.257812 L 31.453125 7.257812 L 31.453125 2.417969 C 31.453125 1.085938 30.367188 0 29.03125 0 L 8.46875 0 C 7.132812 0 6.046875 1.085938 6.046875 2.417969 L 6.046875 7.257812 L 2.417969 7.257812 C 1.085938 7.257812 0 8.34375 0 9.675781 L 0 27.824219 C 0 29.15625 1.085938 30.242188 2.417969 30.242188 L 14.515625 30.242188 L 14.515625 31.769531 C 12.503906 32.089844 9.675781 32.832031 9.675781 34.476562 C 9.675781 36.554688 14.382812 37.5 18.75 37.5 C 23.117188 37.5 27.824219 36.554688 27.824219 34.476562 C 27.824219 32.832031 24.996094 32.089844 22.984375 31.769531 L 22.984375 30.242188 L 35.082031 30.242188 C 36.414062 30.242188 37.5 29.15625 37.5 27.824219 L 37.5 9.675781 C 37.5 8.34375 36.414062 7.257812 35.082031 7.257812 " fill-opacity="1" fill-rule="nonzero"/></g><path fill="rgb(100%, 100%, 100%)" d="M 9.675781 2.417969 L 8.46875 2.417969 L 8.46875 3.628906 L 9.675781 3.628906 L 9.675781 2.417969 " fill-opacity="1" fill-rule="nonzero"/><path fill="rgb(100%, 100%, 100%)" d="M 12.097656 2.417969 L 10.886719 2.417969 L 10.886719 3.628906 L 12.097656 3.628906 L 12.097656 2.417969 " fill-opacity="1" fill-rule="nonzero"/><path fill="rgb(100%, 100%, 100%)" d="M 14.515625 2.417969 L 13.304688 2.417969 L 13.304688 3.628906 L 14.515625 3.628906 L 14.515625 2.417969 " fill-opacity="1" fill-rule="nonzero"/><path fill="rgb(100%, 100%, 100%)" d="M 17.539062 27.824219 L 19.960938 27.824219 L 19.960938 26.613281 L 17.539062 26.613281 L 17.539062 27.824219 " fill-opacity="1" fill-rule="nonzero"/><path fill="rgb(100%, 100%, 100%)" d="M 21.167969 27.824219 L 22.378906 27.824219 L 22.378906 26.613281 L 21.167969 26.613281 L 21.167969 27.824219 " fill-opacity="1" fill-rule="nonzero"/><path fill="rgb(100%, 100%, 100%)" d="M 15.121094 27.824219 L 16.332031 27.824219 L 16.332031 26.613281 L 15.121094 26.613281 L 15.121094 27.824219 " fill-opacity="1" fill-rule="nonzero"/></svg>