<?xml version="1.0" encoding="UTF-8"?><svg xmlns="http://www.w3.org/2000/svg" xmlns:xlink="http://www.w3.org/1999/xlink" width="37.5" zoomAndPan="magnify" viewBox="0 0 37.5 37.499999" height="37.499999" preserveAspectRatio="xMidYMid meet" version="1.0"><defs><clipPath id="clip-0"><path d="M 0 21 L 7 21 L 7 37.007812 L 0 37.007812 Z M 0 21 " clip-rule="nonzero"/></clipPath><clipPath id="clip-1"><path d="M 31 21 L 37.007812 21 L 37.007812 37.007812 L 31 37.007812 Z M 31 21 " clip-rule="nonzero"/></clipPath><clipPath id="clip-2"><path d="M 9 19 L 28 19 L 28 37.007812 L 9 37.007812 Z M 9 19 " clip-rule="nonzero"/></clipPath><clipPath id="clip-3"><path d="M 0 0 L 37.007812 0 L 37.007812 15 L 0 15 Z M 0 0 " clip-rule="nonzero"/></clipPath></defs><g clip-path="url(#clip-0)"><path fill="rgb(1.568604%, 47.059631%, 78.819275%)" d="M 5.171875 21.335938 L 1.292969 21.335938 L 1.292969 31.679688 L 0 31.679688 L 3.234375 37.5 L 6.464844 31.679688 L 5.171875 31.679688 L 5.171875 21.335938 " fill-opacity="1" fill-rule="nonzero"/></g><g clip-path="url(#clip-1)"><path fill="rgb(1.568604%, 47.059631%, 78.819275%)" d="M 31.035156 27.15625 L 32.328125 27.15625 L 32.328125 37.5 L 36.207031 37.5 L 36.207031 27.15625 L 37.5 27.15625 L 34.265625 21.335938 L 31.035156 27.15625 " fill-opacity="1" fill-rule="nonzero"/></g><g clip-path="url(#clip-2)"><path fill="rgb(1.568604%, 47.059631%, 78.819275%)" d="M 18.75 36.207031 C 17.324219 36.207031 16.164062 35.046875 16.164062 33.621094 C 16.164062 32.996094 16.394531 32.390625 16.808594 31.921875 L 16.808594 26.242188 L 18.75 24.300781 L 20.691406 26.242188 L 20.691406 31.921875 C 21.105469 32.390625 21.335938 32.996094 21.335938 33.621094 C 21.335938 35.046875 20.175781 36.207031 18.75 36.207031 Z M 27.769531 27.800781 C 27.625 25.792969 26.828125 23.964844 25.585938 22.53125 L 24.234375 23.875 L 23.320312 22.960938 L 24.671875 21.617188 C 23.234375 20.371094 21.40625 19.574219 19.398438 19.429688 L 19.398438 21.335938 L 18.101562 21.335938 L 18.101562 19.429688 C 16.09375 19.574219 14.265625 20.371094 12.828125 21.617188 L 14.179688 22.960938 L 13.265625 23.875 L 11.914062 22.53125 C 10.671875 23.964844 9.875 25.792969 9.730469 27.800781 L 11.636719 27.800781 L 11.636719 29.09375 L 9.730469 29.09375 C 10.066406 33.785156 13.976562 37.5 18.75 37.5 C 23.523438 37.5 27.433594 33.785156 27.769531 29.09375 L 25.863281 29.09375 L 25.863281 27.800781 L 27.769531 27.800781 " fill-opacity="1" fill-rule="nonzero"/></g><path fill="rgb(1.568604%, 47.059631%, 78.819275%)" d="M 19.398438 32.472656 L 19.398438 26.777344 L 18.75 26.128906 L 18.101562 26.777344 L 18.101562 32.472656 L 17.890625 32.664062 C 17.609375 32.917969 17.457031 33.253906 17.457031 33.621094 C 17.457031 34.332031 18.039062 34.914062 18.75 34.914062 C 19.460938 34.914062 20.042969 34.332031 20.042969 33.621094 C 20.042969 33.253906 19.890625 32.917969 19.609375 32.664062 L 19.398438 32.472656 " fill-opacity="1" fill-rule="nonzero"/><path fill="rgb(1.568604%, 47.059631%, 78.819275%)" d="M 27.15625 6.464844 L 28.449219 6.464844 L 28.449219 7.757812 L 27.15625 7.757812 Z M 29.742188 6.464844 L 31.035156 6.464844 L 31.035156 7.757812 L 29.742188 7.757812 Z M 32.328125 6.464844 L 33.621094 6.464844 L 33.621094 7.757812 L 32.328125 7.757812 Z M 30.402344 11.636719 C 32.886719 11.636719 34.914062 9.601562 34.914062 7.097656 C 34.914062 4.609375 32.886719 2.585938 30.402344 2.585938 C 29.507812 2.585938 28.644531 2.847656 27.898438 3.34375 L 22.246094 7.113281 L 27.898438 10.878906 C 28.644531 11.375 29.507812 11.636719 30.402344 11.636719 " fill-opacity="1" fill-rule="nonzero"/><path fill="rgb(1.568604%, 47.059631%, 78.819275%)" d="M 10.34375 7.757812 L 9.050781 7.757812 L 9.050781 6.464844 L 10.34375 6.464844 Z M 7.757812 7.757812 L 6.464844 7.757812 L 6.464844 6.464844 L 7.757812 6.464844 Z M 5.171875 7.757812 L 3.878906 7.757812 L 3.878906 6.464844 L 5.171875 6.464844 Z M 7.097656 2.585938 C 4.613281 2.585938 2.585938 4.621094 2.585938 7.125 C 2.585938 9.613281 4.613281 11.636719 7.097656 11.636719 C 7.992188 11.636719 8.855469 11.375 9.601562 10.878906 L 15.253906 7.113281 L 9.601562 3.34375 C 8.855469 2.847656 7.992188 2.585938 7.097656 2.585938 " fill-opacity="1" fill-rule="nonzero"/><g clip-path="url(#clip-3)"><path fill="rgb(1.568604%, 47.059631%, 78.819275%)" d="M 37.5 7.097656 C 37.5 3.183594 34.316406 0 30.402344 0 C 28.992188 0 27.632812 0.410156 26.464844 1.191406 L 10.320312 11.957031 C 9.363281 12.59375 8.25 12.929688 7.097656 12.929688 C 3.898438 12.929688 1.292969 10.328125 1.292969 7.125 C 1.292969 3.910156 3.898438 1.292969 7.097656 1.292969 C 8.25 1.292969 9.363281 1.628906 10.320312 2.269531 L 16.417969 6.335938 L 17.585938 5.558594 L 11.035156 1.191406 C 9.867188 0.410156 8.507812 0 7.097656 0 C 3.183594 0 0 3.199219 0 7.125 C 0 11.039062 3.183594 14.222656 7.097656 14.222656 C 8.507812 14.222656 9.867188 13.8125 11.035156 13.03125 L 27.179688 2.269531 C 28.136719 1.628906 29.25 1.292969 30.402344 1.292969 C 33.601562 1.292969 36.207031 3.898438 36.207031 7.097656 C 36.207031 10.316406 33.601562 12.929688 30.402344 12.929688 C 29.25 12.929688 28.136719 12.59375 27.179688 11.957031 L 21.082031 7.890625 L 19.914062 8.664062 L 26.464844 13.03125 C 27.632812 13.8125 28.992188 14.222656 30.402344 14.222656 C 34.316406 14.222656 37.5 11.027344 37.5 7.097656 " fill-opacity="1" fill-rule="nonzero"/></g></svg>