<?xml version="1.0" standalone="no"?>
<!DOCTYPE svg PUBLIC "-//W3C//DTD SVG 20010904//EN"
 "http://www.w3.org/TR/2001/REC-SVG-20010904/DTD/svg10.dtd">
<svg version="1.0" xmlns="http://www.w3.org/2000/svg"
 width="50.000000pt" height="50.000000pt" viewBox="0 0 50.000000 50.000000"
 preserveAspectRatio="xMidYMid meet">

<g transform="translate(0.000000,50.000000) scale(0.100000,-0.100000)"
fill="#000000" stroke="none">
<path d="M65 491 c-62 -26 -79 -102 -32 -148 44 -44 77 -37 197 44 150 100
165 107 201 92 17 -6 37 -25 45 -41 21 -40 3 -85 -40 -103 -34 -15 -57 -9
-114 30 -20 14 -41 25 -47 25 -5 0 15 -17 45 -37 68 -46 109 -49 147 -10 37
36 37 88 0 124 -46 46 -78 38 -219 -54 -67 -45 -130 -83 -138 -84 -59 -11
-112 49 -89 102 10 27 53 59 77 59 4 0 34 -16 67 -35 70 -43 85 -40 18 3 -55
35 -90 45 -118 33z"/>
<path d="M56 444 c-34 -33 -9 -94 37 -94 12 0 41 13 64 28 l42 28 -43 27 c-49
31 -78 34 -100 11z m14 -39 c0 -8 -4 -15 -10 -15 -5 0 -10 7 -10 15 0 8 5 15
10 15 6 0 10 -7 10 -15z m34 -6 c-3 -5 -10 -7 -15 -3 -5 3 -7 10 -3 15 3 5 10
7 15 3 5 -3 7 -10 3 -15z m36 6 c0 -8 -4 -15 -10 -15 -5 0 -10 7 -10 15 0 8 5
15 10 15 6 0 10 -7 10 -15z"/>
<path d="M343 432 l-42 -28 43 -27 c24 -15 52 -27 64 -27 45 0 69 61 36 94
-23 23 -54 20 -101 -12z m37 -27 c0 -8 -4 -15 -10 -15 -5 0 -10 7 -10 15 0 8
5 15 10 15 6 0 10 -7 10 -15z m34 -6 c-3 -5 -10 -7 -15 -3 -5 3 -7 10 -3 15 3
5 10 7 15 3 5 -3 7 -10 3 -15z m36 6 c0 -8 -4 -15 -10 -15 -5 0 -10 7 -10 15
0 8 5 15 10 15 6 0 10 -7 10 -15z"/>
<path d="M207 228 c-22 -8 -26 -14 -21 -30 5 -16 3 -19 -14 -14 -16 5 -22 0
-30 -24 -9 -24 -8 -30 4 -30 19 0 18 -18 -1 -22 -13 -3 -13 -8 2 -38 47 -93
175 -85 212 13 9 22 8 27 -4 27 -8 0 -15 5 -15 10 0 6 7 10 14 10 12 0 13 6 4
30 -8 24 -14 29 -30 24 -16 -5 -19 -2 -14 14 5 16 0 22 -24 30 -24 9 -30 8
-30 -4 0 -18 -17 -19 -22 -1 -2 11 -10 12 -31 5z m61 -70 c19 -42 23 -115 6
-133 -8 -8 -19 -15 -24 -15 -25 0 -39 32 -34 78 6 48 22 92 34 92 4 0 12 -10
18 -22z"/>
<path d="M240 90 c0 -27 5 -50 10 -50 6 0 10 23 10 50 0 28 -4 50 -10 50 -5 0
-10 -22 -10 -50z"/>
<path d="M18 138 c-3 -48 1 -83 10 -102 l14 -28 16 27 c13 21 16 45 14 101 -3
70 -5 74 -27 74 -22 0 -24 -4 -27 -72z"/>
<path d="M439 178 c-9 -22 -13 -58 -11 -105 3 -69 4 -73 27 -73 22 0 24 4 27
78 3 58 0 84 -12 105 l-16 27 -15 -32z"/>
</g>
</svg>
