<?xml version="1.0" encoding="UTF-8"?><svg xmlns="http://www.w3.org/2000/svg" xmlns:xlink="http://www.w3.org/1999/xlink" width="37.5" zoomAndPan="magnify" viewBox="0 0 37.5 37.499999" height="37.499999" preserveAspectRatio="xMidYMid meet" version="1.0"><defs><clipPath id="clip-0"><path d="M 0 1.03125 L 37.007812 1.03125 L 37.007812 36.28125 L 0 36.28125 Z M 0 1.03125 " clip-rule="nonzero"/></clipPath></defs><g clip-path="url(#clip-0)"><path fill="rgb(100%, 100%, 100%)" d="M 37.238281 17.519531 L 22.34375 4.132812 L 19.085938 1.203125 C 18.894531 1.03125 18.59375 1.03125 18.398438 1.203125 L 17.046875 2.421875 L 14.195312 4.984375 C 14.074219 5.09375 14.132812 5.289062 14.296875 5.3125 C 22.597656 6.597656 29.675781 11.519531 33.753906 18.347656 C 33.789062 18.40625 33.851562 18.441406 33.921875 18.441406 L 36.960938 18.441406 C 37.265625 18.441406 37.464844 18.199219 37.46875 17.949219 C 37.394531 17.804688 37.316406 17.664062 37.238281 17.519531 Z M 10.210938 27.464844 C 7.566406 27.335938 5.390625 29.453125 5.527344 32.035156 C 5.640625 34.242188 7.480469 36.039062 9.746094 36.152344 C 12.390625 36.28125 14.5625 34.160156 14.429688 31.582031 C 14.3125 29.371094 12.472656 27.578125 10.210938 27.464844 Z M 9.976562 21.484375 C 8.507812 21.484375 7.109375 21.777344 5.839844 22.308594 C 5.765625 22.335938 5.722656 22.40625 5.722656 22.484375 L 5.722656 25.84375 C 5.722656 25.996094 5.894531 26.085938 6.027344 26.003906 C 7.160156 25.265625 8.519531 24.835938 9.976562 24.835938 C 13.917969 24.835938 17.121094 27.964844 17.121094 31.808594 C 17.121094 33.316406 16.632812 34.710938 15.796875 35.851562 C 15.703125 35.980469 15.792969 36.15625 15.953125 36.15625 L 19.445312 36.15625 C 19.523438 36.15625 19.59375 36.113281 19.625 36.042969 C 20.226562 34.75 20.558594 33.316406 20.558594 31.808594 C 20.558594 26.117188 15.8125 21.484375 9.976562 21.484375 Z M 10.15625 14.902344 C 6.519531 14.867188 3.132812 15.929688 0.328125 17.769531 C 0.0273438 17.96875 0.15625 18.433594 0.515625 18.441406 C 0.519531 18.441406 0.523438 18.441406 0.527344 18.441406 L 5.214844 18.441406 C 5.234375 18.441406 5.25 18.441406 5.269531 18.445312 C 6.070312 18.53125 6.875 18.570312 7.667969 18.441406 C 8.417969 18.316406 9.191406 18.253906 9.976562 18.253906 C 17.640625 18.253906 23.871094 24.332031 23.871094 31.808594 C 23.871094 33.234375 23.644531 34.613281 23.222656 35.90625 C 23.183594 36.03125 23.277344 36.15625 23.410156 36.15625 L 26.574219 36.15625 C 26.664062 36.15625 26.742188 36.097656 26.765625 36.011719 C 27.171875 34.472656 27.359375 32.851562 27.296875 31.175781 C 26.960938 22.191406 19.375 14.996094 10.15625 14.902344 Z M 31.746094 21.734375 C 31.757812 21.761719 31.765625 21.789062 31.765625 21.820312 L 31.765625 35.660156 C 31.765625 35.933594 31.539062 36.15625 31.257812 36.15625 L 30.136719 36.15625 C 30.453125 34.753906 30.621094 33.300781 30.621094 31.808594 C 30.621094 20.703125 21.359375 11.667969 9.976562 11.667969 C 8.988281 11.667969 8.019531 11.734375 7.066406 11.867188 C 6.875 11.894531 6.761719 11.664062 6.90625 11.539062 L 10.425781 8.371094 C 10.460938 8.339844 10.511719 8.320312 10.5625 8.320312 C 16.777344 8.464844 22.59375 10.894531 27.003906 15.195312 C 28.984375 17.128906 30.578125 19.339844 31.746094 21.734375 " fill-opacity="1" fill-rule="nonzero"/></g></svg>